<svg width="389" height="57" viewBox="0 0 389 57" fill="none" xmlns="http://www.w3.org/2000/svg">
<path d="M0.533404 55.1194C0.0449094 55.3771 -0.142214 55.982 0.115452 56.4705C0.373118 56.959 0.978 57.1461 1.46649 56.8884L0.533404 55.1194ZM387.09 51.8633C387.641 51.8952 388.114 51.4742 388.146 50.9228L388.666 41.9378C388.698 41.3865 388.277 40.9136 387.726 40.8817C387.174 40.8498 386.701 41.2709 386.67 41.8222L386.207 49.8089L378.22 49.3464C377.669 49.3145 377.196 49.7356 377.164 50.287C377.132 50.8383 377.554 51.3112 378.105 51.3431L387.09 51.8633ZM0.999949 56.0039L1.46649 56.8884C4.15557 55.47 6.88581 54.0745 9.65479 52.7025L9.2108 51.8065L8.76681 50.9104C5.98307 52.2898 3.23778 53.693 0.533404 55.1194L0.999949 56.0039ZM25.9876 43.983L26.3895 44.8987C31.953 42.4572 37.64 40.1056 43.4337 37.8478L43.0705 36.9161L42.7074 35.9844C36.8887 38.2519 31.1757 40.6142 25.5858 43.0673L25.9876 43.983ZM60.4496 30.5322L60.7764 31.4773C66.5498 29.4809 72.4064 27.5754 78.3309 25.7642L78.0386 24.8079L77.7462 23.8516C71.7991 25.6696 65.9195 27.5827 60.1228 29.5871L60.4496 30.5322ZM95.8195 19.7089L96.0785 20.6747C102.006 19.0847 107.984 17.5889 113.998 16.1904L113.771 15.2164L113.545 14.2424C107.509 15.6459 101.51 17.1472 95.5604 18.743L95.8195 19.7089ZM131.859 11.3255L132.053 12.3065C138.095 11.1111 144.158 10.0156 150.229 9.02295L150.067 8.03606L149.906 7.04916C143.814 8.04537 137.729 9.1449 131.665 10.3445L131.859 11.3255ZM168.373 5.35835L168.501 6.35014C174.629 5.55979 180.749 4.87773 186.847 4.30726L186.754 3.31161L186.661 2.31595C180.539 2.88863 174.396 3.57329 168.245 4.36657L168.373 5.35835ZM205.215 1.92351L205.271 2.92191C211.465 2.57182 217.618 2.34266 223.717 2.23796L223.7 1.23811L223.683 0.238259C217.557 0.343412 211.377 0.573571 205.159 0.925101L205.215 1.92351ZM242.191 1.30961L242.166 2.30928C248.4 2.46862 254.555 2.76764 260.615 3.21031L260.688 2.21297L260.76 1.21563C254.668 0.770553 248.481 0.470048 242.217 0.309933L242.191 1.30961ZM279.067 4.03873L278.941 5.03077C285.161 5.82017 291.249 6.77689 297.185 7.90567L297.372 6.92327L297.559 5.94088C291.58 4.80398 285.451 3.84096 279.193 3.04669L279.067 4.03873ZM315.375 11.0058L315.118 11.9721C321.203 13.5922 327.081 15.4211 332.724 17.4647L333.065 16.5245L333.405 15.5842C327.703 13.5193 321.77 11.6733 315.632 10.0394L315.375 11.0058ZM350.103 23.7075L349.664 24.606C355.309 27.3624 360.631 30.3866 365.596 33.6862L366.149 32.8533L366.703 32.0205C361.659 28.6681 356.259 25.6007 350.541 22.8089L350.103 23.7075ZM380.678 44.2579L379.996 44.9897C382.248 47.0869 384.385 49.2666 386.401 51.53L387.148 50.865L387.894 50.1999C385.836 47.8884 383.655 45.6643 381.359 43.5261L380.678 44.2579ZM0.533404 55.1194C0.0449094 55.3771 -0.142214 55.982 0.115452 56.4705C0.373118 56.959 0.978 57.1461 1.46649 56.8884L0.533404 55.1194ZM387.09 51.8633C387.641 51.8952 388.114 51.4742 388.146 50.9228L388.666 41.9378C388.698 41.3865 388.277 40.9136 387.726 40.8817C387.174 40.8498 386.701 41.2709 386.67 41.8222L386.207 49.8089L378.22 49.3464C377.669 49.3145 377.196 49.7356 377.164 50.287C377.132 50.8383 377.554 51.3112 378.105 51.3431L387.09 51.8633ZM0.999949 56.0039L1.46649 56.8884C4.15557 55.47 6.88581 54.0745 9.65479 52.7025L9.2108 51.8065L8.76681 50.9104C5.98307 52.2898 3.23778 53.693 0.533404 55.1194L0.999949 56.0039ZM25.9876 43.983L26.3895 44.8987C31.953 42.4572 37.64 40.1056 43.4337 37.8478L43.0705 36.9161L42.7074 35.9844C36.8887 38.2519 31.1757 40.6142 25.5858 43.0673L25.9876 43.983ZM60.4496 30.5322L60.7764 31.4773C66.5498 29.4809 72.4064 27.5754 78.3309 25.7642L78.0386 24.8079L77.7462 23.8516C71.7991 25.6696 65.9195 27.5827 60.1228 29.5871L60.4496 30.5322ZM95.8195 19.7089L96.0785 20.6747C102.006 19.0847 107.984 17.5889 113.998 16.1904L113.771 15.2164L113.545 14.2424C107.509 15.6459 101.51 17.1472 95.5604 18.743L95.8195 19.7089ZM131.859 11.3255L132.053 12.3065C138.095 11.1111 144.158 10.0156 150.229 9.02295L150.067 8.03606L149.906 7.04916C143.814 8.04537 137.729 9.1449 131.665 10.3445L131.859 11.3255ZM168.373 5.35835L168.501 6.35014C174.629 5.55979 180.749 4.87773 186.847 4.30726L186.754 3.31161L186.661 2.31595C180.539 2.88863 174.396 3.57329 168.245 4.36657L168.373 5.35835ZM205.215 1.92351L205.271 2.92191C211.465 2.57182 217.618 2.34266 223.717 2.23796L223.7 1.23811L223.683 0.238259C217.557 0.343412 211.377 0.573571 205.159 0.925101L205.215 1.92351ZM242.191 1.30961L242.166 2.30928C248.4 2.46862 254.555 2.76764 260.615 3.21031L260.688 2.21297L260.76 1.21563C254.668 0.770553 248.481 0.470048 242.217 0.309933L242.191 1.30961ZM279.067 4.03873L278.941 5.03077C285.161 5.82017 291.249 6.77689 297.185 7.90567L297.372 6.92327L297.559 5.94088C291.58 4.80398 285.451 3.84096 279.193 3.04669L279.067 4.03873ZM315.375 11.0058L315.118 11.9721C321.203 13.5922 327.081 15.4211 332.724 17.4647L333.065 16.5245L333.405 15.5842C327.703 13.5193 321.77 11.6733 315.632 10.0394L315.375 11.0058ZM350.103 23.7075L349.664 24.606C355.309 27.3624 360.631 30.3866 365.596 33.6862L366.149 32.8533L366.703 32.0205C361.659 28.6681 356.259 25.6007 350.541 22.8089L350.103 23.7075ZM380.678 44.2579L379.996 44.9897C382.248 47.0869 384.385 49.2666 386.401 51.53L387.148 50.865L387.894 50.1999C385.836 47.8884 383.655 45.6643 381.359 43.5261L380.678 44.2579Z" fill="#D55900"/>
</svg>
