<svg width="317" height="48" viewBox="0 0 317 48" fill="none" xmlns="http://www.w3.org/2000/svg">
<path d="M1.07588 3.21649C0.589925 2.95408 0.408707 2.3474 0.671123 1.86144C0.93354 1.37548 1.54022 1.19426 2.02618 1.45668L1.07588 3.21649ZM314.077 0.947928C314.627 0.891645 315.118 1.2914 315.174 1.84082L316.091 10.794C316.147 11.3434 315.748 11.8344 315.198 11.8907C314.649 11.9469 314.158 11.5472 314.101 10.9978L313.286 3.03942L305.328 3.85467C304.778 3.91095 304.287 3.51119 304.231 2.96178C304.175 2.41237 304.575 1.92136 305.124 1.86508L314.077 0.947928ZM1.55103 2.33659L2.02618 1.45668C4.68917 2.89469 7.40092 4.30297 10.1579 5.68071L9.71085 6.57523L9.26383 7.46975C6.4885 6.08283 3.75799 4.66482 1.07588 3.21649L1.55103 2.33659ZM26.4048 14.3152L26.7998 13.3965C32.3559 15.7851 38.0502 18.0572 43.8579 20.2072L43.5107 21.145L43.1636 22.0828C37.3248 19.9214 31.5987 17.6366 26.0099 15.2339L26.4048 14.3152ZM60.9331 27.1236L61.2354 26.1704C67.0348 28.0098 72.9171 29.7301 78.8603 31.3264L78.6009 32.2921L78.3415 33.2579C72.37 31.654 66.459 29.9254 60.6308 28.0768L60.9331 27.1236ZM96.4883 36.6819L96.7056 35.7058C102.679 37.0358 108.691 38.2396 114.719 39.3125L114.544 40.297L114.368 41.2815C108.312 40.2036 102.273 38.9942 96.271 37.658L96.4883 36.6819ZM132.741 43.1305L132.873 42.1392C138.969 42.9525 145.061 43.6274 151.124 44.159L151.037 45.1551L150.95 46.1513C144.855 45.617 138.734 44.9388 132.608 44.1217L132.741 43.1305ZM169.424 46.3283L169.463 45.3291C175.643 45.5728 181.77 45.6585 187.819 45.5807L187.832 46.5807L187.845 47.5806C181.759 47.6588 175.598 47.5726 169.384 47.3276L169.424 46.3283ZM206.218 45.8185L206.147 44.821C212.359 44.3779 218.456 43.7453 224.408 42.9169L224.546 43.9074L224.684 44.8979C218.685 45.7327 212.544 46.3698 206.289 46.8159L206.218 45.8185ZM242.675 40.671L242.459 39.6945C248.572 38.3442 254.477 36.755 260.138 34.9194L260.446 35.8706L260.755 36.8219C255.028 38.6788 249.061 40.2844 242.891 41.6475L242.675 40.671ZM277.595 29.1942L277.175 28.2867C282.861 25.6545 288.193 22.7073 293.124 19.4353L293.677 20.2685L294.23 21.1017C289.207 24.435 283.784 27.4307 278.015 30.1016L277.595 29.1942ZM307.984 8.74027L307.282 8.02751C309.457 5.88718 311.5 3.64903 313.404 1.31136L314.179 1.94272L314.955 2.57409C313.003 4.97055 310.911 7.26289 308.685 9.45302L307.984 8.74027ZM1.07588 3.21649C0.589925 2.95408 0.408707 2.3474 0.671123 1.86144C0.93354 1.37548 1.54022 1.19426 2.02618 1.45668L1.07588 3.21649ZM314.077 0.947928C314.627 0.891645 315.118 1.2914 315.174 1.84082L316.091 10.794C316.147 11.3434 315.748 11.8344 315.198 11.8907C314.649 11.9469 314.158 11.5472 314.101 10.9978L313.286 3.03942L305.328 3.85467C304.778 3.91095 304.287 3.51119 304.231 2.96178C304.175 2.41237 304.575 1.92136 305.124 1.86508L314.077 0.947928ZM1.55103 2.33659L2.02618 1.45668C4.68917 2.89469 7.40092 4.30297 10.1579 5.68071L9.71085 6.57523L9.26383 7.46975C6.4885 6.08283 3.75799 4.66482 1.07588 3.21649L1.55103 2.33659ZM26.4048 14.3152L26.7998 13.3965C32.3559 15.7851 38.0502 18.0572 43.8579 20.2072L43.5107 21.145L43.1636 22.0828C37.3248 19.9214 31.5987 17.6366 26.0099 15.2339L26.4048 14.3152ZM60.9331 27.1236L61.2354 26.1704C67.0348 28.0098 72.9171 29.7301 78.8603 31.3264L78.6009 32.2921L78.3415 33.2579C72.37 31.654 66.459 29.9254 60.6308 28.0768L60.9331 27.1236ZM96.4883 36.6819L96.7056 35.7058C102.679 37.0358 108.691 38.2396 114.719 39.3125L114.544 40.297L114.368 41.2815C108.312 40.2036 102.273 38.9942 96.271 37.658L96.4883 36.6819ZM132.741 43.1305L132.873 42.1392C138.969 42.9525 145.061 43.6274 151.124 44.159L151.037 45.1551L150.95 46.1513C144.855 45.617 138.734 44.9388 132.608 44.1217L132.741 43.1305ZM169.424 46.3283L169.463 45.3291C175.643 45.5728 181.77 45.6585 187.819 45.5807L187.832 46.5807L187.845 47.5806C181.759 47.6588 175.598 47.5726 169.384 47.3276L169.424 46.3283ZM206.218 45.8185L206.147 44.821C212.359 44.3779 218.456 43.7453 224.408 42.9169L224.546 43.9074L224.684 44.8979C218.685 45.7327 212.544 46.3698 206.289 46.8159L206.218 45.8185ZM242.675 40.671L242.459 39.6945C248.572 38.3442 254.477 36.755 260.138 34.9194L260.446 35.8706L260.755 36.8219C255.028 38.6788 249.061 40.2844 242.891 41.6475L242.675 40.671ZM277.595 29.1942L277.175 28.2867C282.861 25.6545 288.193 22.7073 293.124 19.4353L293.677 20.2685L294.23 21.1017C289.207 24.435 283.784 27.4307 278.015 30.1016L277.595 29.1942ZM307.984 8.74027L307.282 8.02751C309.457 5.88718 311.5 3.64903 313.404 1.31136L314.179 1.94272L314.955 2.57409C313.003 4.97055 310.911 7.26289 308.685 9.45302L307.984 8.74027Z" fill="white"/>
</svg>
