<svg xmlns="http://www.w3.org/2000/svg" width="400" height="340"><linearGradient id="grad1" x1="0%" y1="0%" x2="100%" y2="0%"><stop offset="0%" style="stop-color:#FFA500;stop-opacity:1" /><stop offset="100%" style="stop-color:#FF6347;stop-opacity:1" /></linearGradient><path fill="url(#grad1)" d="M315.0632534102214,287.5200531010969C307.4977489512164,306.2337518577914,280.90748871268465,328.7948722870646,261.277559180155,332.282192540167C241.64762964762528,335.76951279326937,215.29741042164062,316.231625540241,197.28367621504322,308.4439746197113C179.2699420084458,300.6563236991816,166.46715490157092,295.7776300978131,153.1951539405706,285.5562870169886C139.9231529795703,275.33494393616417,125.25206873075885,263.05354355171386,117.65167044904126,247.11591613476455C110.05127216732367,231.17828871781524,106.12047048106575,210.51333322184396,107.59276425026506,189.93052251529284C109.06505801946437,169.3477118087417,111.59353296576631,133.7416936635583,126.48543306423714,123.61905189545774C141.37733316270797,113.49641012735721,176.97094023386447,126.38787635879977,196.94416484109001,129.19467190668962C216.91738944831556,132.00146745457948,226.92317927125276,136.3958433414567,246.32478070759038,140.45982518279683C265.726382143928,144.52380702413697,303.2961392546832,140.32186715186322,313.3537734591157,153.57856295473042C323.4114076635482,166.83525875759761,306.3856726090008,197.67641830893893,306.67058593418506,220C306.95549925936933,242.32358169106107,322.62875786922643,268.8063543444024,315.0632534102214,287.5200531010969" stroke="none" stroke-width="3"/></svg>