<svg xmlns="http://www.w3.org/2000/svg" width="400" height="340"><linearGradient id="grad1" x1="0%" y1="0%" x2="100%" y2="0%"><stop offset="0%" style="stop-color:#FFA500;stop-opacity:1" /><stop offset="100%" style="stop-color:#FF6347;stop-opacity:1" /></linearGradient><path fill="url(#grad1)" d="M309.4280246371229,283.8985114712103C297.2595010557692,293.4168769819462,254.71392478950156,273.42373311931834,236.08135126683612,277.11019306441506C217.44877774417068,280.7966530095118,214.12603721914977,301.5177570259616,197.63258350113028,306.01727114179073C181.1391297831108,310.51678525761986,146.4524616581251,315.09818278592905,137.12062895871918,304.10727775938994C127.78879625931327,293.11637273285083,144.52789159072037,258.5037683685805,141.64158730469484,240.07184098255598C138.7552830186693,221.63991359653147,118.01288479913939,207.94364655594575,119.80280324256591,193.51571344324284C121.59272168599244,179.08778033053994,139.5357400429052,164.3046482944432,152.38109796525399,153.50424230633854C165.22645588760278,142.70383631823387,182.25562249451662,128.61454880115284,196.87495077665875,128.7132775146149C211.49427905880088,128.81200622807697,222.2924325987894,148.91867884501735,240.09706765810677,154.09661458711093C257.90170271742414,159.27455032920452,292.20352361642097,148.79699439836153,303.70276113256296,159.7808919671764C315.20199864870494,170.76478953599124,308.1382821708653,199.313730082661,309.09249275495864,220C310.046703339052,240.686269917339,321.59654821847664,274.38014596047447,309.4280246371229,283.8985114712103" stroke="none" stroke-width="3"/></svg>