<svg width="25" height="24" viewBox="0 0 25 24" fill="none" xmlns="http://www.w3.org/2000/svg">
<g clip-path="url(#clip0_10_640)">
<path d="M24.5 5.45709V19.3661C24.5 20.2701 23.768 21.0021 22.864 21.0021H19.045V11.7301L12.5 16.6401L5.955 11.7301V21.0031H2.136C1.92107 21.0031 1.70825 20.9607 1.5097 20.8785C1.31115 20.7962 1.13075 20.6756 0.97882 20.5236C0.82689 20.3715 0.706404 20.1911 0.624246 19.9925C0.542088 19.7939 0.499869 19.581 0.5 19.3661V5.45709C0.5 3.43409 2.809 2.27909 4.427 3.49309L5.955 4.64009L12.5 9.54809L19.045 4.63809L20.573 3.49309C22.19 2.28009 24.5 3.43409 24.5 5.45709Z" fill="#D55900"/>
</g>
<defs>
<clipPath id="clip0_10_640">
<rect width="24" height="24" fill="white" transform="translate(0.5)"/>
</clipPath>
</defs>
</svg>
