<svg width="25" height="24" viewBox="0 0 25 24" fill="none" xmlns="http://www.w3.org/2000/svg">
<path d="M3.5 11C3.5 7.229 3.5 5.343 4.672 4.172C5.844 3.001 7.729 3 11.5 3H13.5C17.271 3 19.157 3 20.328 4.172C21.499 5.344 21.5 7.229 21.5 11V13C21.5 16.771 21.5 18.657 20.328 19.828C19.156 20.999 17.271 21 13.5 21H11.5C7.729 21 5.843 21 4.672 19.828C3.501 18.656 3.5 16.771 3.5 13V11Z" stroke="#D55900" stroke-width="2"/>
<path d="M17 9C17.8284 9 18.5 8.32843 18.5 7.5C18.5 6.67157 17.8284 6 17 6C16.1716 6 15.5 6.67157 15.5 7.5C15.5 8.32843 16.1716 9 17 9Z" fill="#D55900"/>
<path d="M12.5 15C14.1569 15 15.5 13.6569 15.5 12C15.5 10.3431 14.1569 9 12.5 9C10.8431 9 9.5 10.3431 9.5 12C9.5 13.6569 10.8431 15 12.5 15Z" stroke="#D55900" stroke-width="2"/>
</svg>
